<?xml version="1.0" encoding="utf-8"?>
<!-- Generator: Adobe Illustrator 21.1.0, SVG Export Plug-In . SVG Version: 6.00 Build 0)  -->
<!DOCTYPE svg PUBLIC "-//W3C//DTD SVG 1.1//EN" "http://www.w3.org/Graphics/SVG/1.1/DTD/svg11.dtd">
<svg version="1.1" id="Layer_1" xmlns="http://www.w3.org/2000/svg" xmlns:xlink="http://www.w3.org/1999/xlink" x="0px" y="0px"
	 viewBox="0 0 220.4 64" style="enable-background:new 0 0 220.4 64;" xml:space="preserve">
<style type="text/css">
	.st0{fill:#FFFFFF;}
</style>
<g>
	<path class="st0" d="M110.1,0c-8.8,0-16.3,3.1-22.5,9.3c-6.3,6.4-9.4,14-9.4,22.7c0,8.8,3.1,16.3,9.4,22.6
		c6.4,6.3,13.9,9.4,22.5,9.4c8.8,0,16.4-3.2,22.9-9.5c6.1-6,9.1-13.5,9.1-22.5c0-9-3.1-16.5-9.3-22.7C126.7,3.1,119.1,0,110.1,0z
		 M128.9,50.3c-5.3,5.2-11.5,7.8-18.6,7.8c-7.2,0-13.3-2.6-18.5-7.8C86.5,45.2,84,39.1,84,32c0-7,2.6-13.2,7.8-18.6
		c5-5.1,11.2-7.7,18.5-7.7c7.2,0,13.4,2.6,18.5,7.7c5.1,5.1,7.7,11.3,7.7,18.6C136.4,39.4,133.9,45.5,128.9,50.3z"/>
	<path class="st0" d="M116.8,22h-13.1c-0.6,0-1.1,0.2-1.5,0.6c-0.4,0.4-0.6,0.9-0.6,1.5v13.1h3.7v15.5h9.9V37.1h3.7V24.1
		c0-0.6-0.2-1.1-0.6-1.5C117.8,22.2,117.3,22,116.8,22z"/>
	<path class="st0" d="M110.2,20.3c3,0,4.5-1.5,4.5-4.5c0-3-1.5-4.5-4.5-4.5c-3,0-4.5,1.5-4.5,4.5C105.7,18.8,107.2,20.3,110.2,20.3z
		"/>
	<path class="st0" d="M54.8,9.4C48.5,3.1,40.9,0,31.9,0C23.1,0,15.6,3.1,9.5,9.3C6.4,12.4,4,15.9,2.4,19.8C0.8,23.7,0,27.8,0,32
		c0,4.3,0.8,8.3,2.4,12.2c1.6,3.8,3.9,7.3,7,10.4c3.1,3.1,6.5,5.4,10.4,7c3.9,1.6,7.9,2.4,12.1,2.4c4.2,0,8.3-0.8,12.3-2.5
		c4-1.6,7.5-4,10.6-7.1c3-2.9,5.3-6.3,6.8-10.1C63.2,40.5,64,36.4,64,32c0-4.3-0.8-8.4-2.3-12.3C60.1,15.8,57.8,12.4,54.8,9.4z
		 M50.7,50.3c-2.6,2.5-5.5,4.4-8.7,5.8c-3.2,1.3-6.5,2-10,2c-3.5,0-6.8-0.7-9.9-2c-3.2-1.3-6-3.2-8.5-5.7c-2.5-2.5-4.4-5.3-5.8-8.5
		c-1.4-3.2-2-6.5-2-9.9c0-3.5,0.7-6.8,2-10c1.4-3.2,3.3-6,5.8-8.6c5-5.1,11.1-7.7,18.5-7.7c7.2,0,13.4,2.6,18.6,7.7
		c2.5,2.5,4.4,5.3,5.7,8.5c1.3,3.2,1.9,6.5,1.9,10.1C58.2,39.4,55.7,45.5,50.7,50.3z"/>
	<path class="st0" d="M42.3,37.7c-1.4,0-2.5-0.5-3.2-1.5c-0.7-1-1.1-2.4-1.1-4.1c0-3.8,1.4-5.7,4.3-5.7c0.6,0,1.2,0.2,1.9,0.6
		c0.7,0.4,1.2,1,1.7,2l4.2-2.2c-1.7-3.1-4.5-4.6-8.5-4.6c-2.7,0-4.9,0.9-6.7,2.7c-1.8,1.8-2.7,4.2-2.7,7.3c0,3.1,0.9,5.6,2.6,7.3
		c1.7,1.8,4,2.6,6.9,2.6c1.8,0,3.4-0.4,4.9-1.3c1.5-0.9,2.7-2.1,3.5-3.7l-4-2C45.5,36.7,44.1,37.7,42.3,37.7z"/>
	<path class="st0" d="M23.8,37.7c-1.4,0-2.5-0.5-3.2-1.5c-0.7-1-1.1-2.4-1.1-4.1c0-3.8,1.4-5.7,4.3-5.7c0.6,0,1.2,0.2,1.9,0.6
		c0.7,0.4,1.2,1,1.7,2l4.3-2.2c-1.7-3.1-4.6-4.6-8.5-4.6c-2.7,0-4.9,0.9-6.7,2.7c-1.8,1.8-2.7,4.2-2.7,7.3c0,3.1,0.9,5.6,2.6,7.3
		c1.8,1.8,4.1,2.6,6.9,2.6c1.8,0,3.4-0.4,4.9-1.3c1.5-0.9,2.6-2.1,3.5-3.7l-3.9-2C27,36.7,25.7,37.7,23.8,37.7z"/>
	<path class="st0" d="M211.1,9.3C204.9,3.1,197.3,0,188.3,0c-8.8,0-16.3,3.1-22.5,9.3c-6.3,6.4-9.4,14-9.4,22.7
		c0,8.7,3.1,16.2,9.4,22.5c6.3,6.3,13.8,9.5,22.5,9.5c8.8,0,16.4-3.2,22.9-9.5c6.1-6,9.1-13.5,9.1-22.5
		C220.4,23,217.3,15.4,211.1,9.3z M207.1,50.3c-5.2,5.2-11.4,7.8-18.6,7.8c-7.1,0-13.3-2.6-18.5-7.7c-5.2-5.2-7.8-11.3-7.8-18.4
		c0-3.1,0.5-6,1.4-8.6l16.3,7.3l5.1,2.2l3.8,1.7l3.1,1.3c0.6,0.5,0.9,1.1,0.9,1.9c0,1.1-0.4,2-1.2,2.5c-0.8,0.5-1.7,0.7-2.8,0.7
		c-2.7,0-5-1-7.1-2.9l-4.4,4.5c2.9,2.5,6.2,3.8,9.7,3.8v4.9h3.7v-4.9c2.2-0.2,4.1-0.9,5.7-2.2c1.6-1.3,2.6-2.9,3.1-4.9l12.1,5.4
		C210.4,46.6,208.9,48.5,207.1,50.3z M197.4,31.5l-5.1-2.3l-2.8-1.3l-4.1-1.8c-0.2-0.3-0.3-0.5-0.3-0.8c0-0.9,0.4-1.6,1.2-1.9
		c0.8-0.4,1.7-0.6,2.7-0.6c1.9,0,3.7,0.6,5.5,1.9l4.2-4.3c-2.4-1.8-5.1-2.8-8-3v-4.9h-3.7v4.9c-2,0.1-3.7,0.7-5.2,1.7
		c-1.5,1-2.5,2.4-3,4l-12.2-5.5c1.1-1.6,2.3-3,3.5-4.3c5-5.1,11.2-7.7,18.5-7.7c7.3,0,13.4,2.6,18.5,7.7c5.1,5,7.7,11.2,7.7,18.6
		c0,2.3-0.3,4.6-0.8,6.9L197.4,31.5z"/>
</g>
</svg>
