<?xml version="1.0" encoding="utf-8"?>
<!-- Generator: Adobe Illustrator 21.1.0, SVG Export Plug-In . SVG Version: 6.00 Build 0)  -->
<!DOCTYPE svg PUBLIC "-//W3C//DTD SVG 1.1//EN" "http://www.w3.org/Graphics/SVG/1.1/DTD/svg11.dtd">
<svg version="1.1" id="Calque_1" xmlns="http://www.w3.org/2000/svg" xmlns:xlink="http://www.w3.org/1999/xlink" x="0px" y="0px"
	 viewBox="0 0 226.2 133.6" style="enable-background:new 0 0 226.2 133.6;" xml:space="preserve">
<style type="text/css">
	.st0{fill:#FFFFFF;}
</style>
<g>
	<path class="st0" d="M12.2,105.5c-0.3,2.6-0.5,4.8-0.5,6.5c0,0.5,0,0.9,0.1,1.3c0.1,2.7,0.7,4.9,1.8,6.5c0,0.1-0.1,0.1-0.1,0.2
		c0,0.2,0.1,0.5,0.4,0.9l0.2,0.2l0.2,0.3c0.1,0.2,0.2,0.4,0.2,0.7l0.5,0.1l0.5,0.2c0.3,0.1,0.5,0.1,0.7,0.1h0.2l0.2-0.8
		c-0.6-1.3-0.8-3-0.8-5.2c0-1.1,0.1-2.3,0.2-3.5l0.3-2.5l0.3-2.5c0.3-2.1,0.5-3.7,0.6-4.8c0.4-1.9,0.9-3.9,1.4-6.2l0.7-3l0.7-2.9
		c1.2-5,2.1-8.9,2.7-11.7c0.5-1.2,0.9-2.6,1.3-4.4l0.2-1.1c0.9-0.1,3.1-0.9,3.1-0.9l1-0.2c0.8-0.1,1.3-0.3,1.7-0.4h0.1l0.1,0.1
		c0.1-0.1,0.2-0.1,0.3-0.1h0.1l0.4,0.1H31h0.1l0.8-0.1l0.2-0.1h0.1c0,0,0.3-0.1,0.3-0.1c0.1,0,3-0.3,4.8-0.4l2.2-0.2l2.2-0.2
		c1.1,0.4,2.2,0.6,3.4,0.6c0.4,0,0.9,0,1.4-0.1c0.4,0.2,0.8,0.3,1.2,0.3l0.5,0.1h0.6c0.9,0,1.7,0.2,2.3,0.6h0.2l0.2-0.2
		c0-0.1,0.1-0.1,0.2-0.1c0.1,0,0.2,0.1,0.3,0.2c0-0.2,0.1-0.5,0.1-0.7c0-0.3,0-0.5-0.1-0.8l-0.1-0.8c-0.1-0.4-0.1-0.8-0.1-1.1
		c-0.3-0.7-0.6-1.3-0.9-1.7C50.4,67.2,50.1,67,50,67c-0.1,0-0.2,0.1-0.3,0.2c-0.8-0.4-1.7-0.7-2.9-0.7h-1.3c-0.5,0-1.6-0.1-1.7-0.1
		h-0.3c-0.2,0-0.7,0.3-0.8,0.1h-0.2l-2.4,0.2L37.7,67c-1.9,0.2-3.6,0.4-4.9,0.6l-0.1,0.1v0.1l-0.1-0.1c-0.4,0.2-0.8,0.4-1.3,0.4
		l-0.2,0.1l-0.5,0.1c-0.1,0-0.2,0.1-0.3,0.1h-0.2c-0.1,0.1-0.2,0.1-0.4,0.2c-0.2,0-0.4,0.1-0.7,0.1c-0.3,0-0.6,0.1-0.8,0.1
		c-0.3,0-0.5,0-0.6-0.1c-0.4,0.3-1.1,0.6-2,0.8c0-0.3-0.1-0.5-0.2-0.7c0.4-0.2,0.7-0.7,0.7-1.5l0.1-0.5l0.1-0.4
		c0.1-0.3,0.2-0.5,0.4-0.7c0,0,0.1-0.1,0.1-0.1c0,0,0.3-1,0.4-1.5c0.1-0.2,0.1-0.4,0.2-0.8l0.1-0.8h0.1c0.1-0.6,0.1-1.1,0.2-1.5
		v-0.2l0.1-0.2l0.1-0.3c0-0.1,0.1-0.4,0.1-0.4c0.1-0.5,0.3-0.9,0.5-1.3c0.1-0.7,0.3-1.6,0.6-2.7c0.1-0.4,0.3-0.9,0.5-1.5l0.5-1.6
		c0-0.1,0.2-1,0.3-1.4c0-0.1,0.1-0.2,0.1-0.3c0-0.3,1.2-5,1.9-7.4c0.3-1.3,0.6-2.3,0.8-3.1c0.3-1.2,0.6-2.4,0.8-3.5
		c0,0,1-4.1,1.3-5.8l0.3-2l0.4-2c0.3-1.6,0.4-2.9,0.5-4c0-0.8,0.1-1.5,0.1-2.2h0.2c0.2-0.1,0.4-0.2,0.6-0.2l0.7-0.1h0.3l1.4-0.2
		l0.2-0.4c0.1,0,0.2,0,0.2,0.1l0.1,0.2l0.1,0.1h0.2c0-0.1,0.1-0.1,0.2-0.1l0.3-0.1c0.3,0,0.4-0.1,0.5-0.3l4-0.3l4-0.4
		c3.2-0.3,5.8-0.4,7.8-0.5c1.2,0.3,2.6,0.5,4.2,0.6c1.3,0.1,2.7,0.2,4,0.2c0.6,0.2,1.2,0.3,2,0.4l0.9,0.1l0.9,0.1
		c1.5,0.2,2.8,0.5,3.8,1h0.4l0.3-0.1c0.1,0,0.1-0.1,0.2-0.1c0.2,0,0.4,0.1,0.5,0.2c0.3-0.4,0.6-0.9,0.7-1.5l0.1-0.4l0.1-0.4
		c0.1-0.4,0.1-0.7,0.2-1c-0.1-0.7-0.4-1.4-0.8-1.9c-0.3-0.4-0.6-0.6-1-0.6c-0.2,0-0.4,0.1-0.6,0.2c-0.7-0.4-1.6-0.7-2.5-0.8
		c-0.6-0.1-1.4-0.3-2.4-0.3L67,14.5l-1.2-0.1c-1-0.1-1.8-0.3-2.5-0.4c-0.1,0.1-0.3,0.2-0.5,0.2h-0.7c-0.4,0-0.7,0.1-0.8,0.3
		c-0.2,0-0.4-0.1-0.5-0.3L60.6,14l-0.2-0.2v0.3c-6.9,0.1-12.9,0.6-18.1,1.4l-0.2,0.1v0.1L42,15.6c-0.6,0.2-1.5,0.5-2.6,0.7l-0.3,0.1
		l-1,0.2c-0.4,0.1-0.7,0.1-1,0.2c-0.1,0.1-0.4,0.1-0.9,0.2l-0.6,0.2L35,17.3l-0.3,0.1c-0.4-0.3-0.8-0.5-1.2-0.7
		c-0.2-0.1-0.4-0.1-0.5-0.1c-0.3,0-0.5,0.1-0.7,0.3c-0.3,0.2-0.4,0.6-0.6,1.1c-0.4,0.1-0.8,0.3-1.3,0.5c-0.4,0.1-1.1,0.3-2,0.6
		l-1,0.3l-1,0.3c-0.7,0.2-1.4,0.5-1.8,0.8h-0.2c-0.2,0-0.4,0-0.6,0.1l-0.3,0.1c-0.1,0-0.3,0.1-0.4,0.1c-0.3,0.3-0.8,0.5-1.3,0.7
		l-0.7,0.3l-0.6,0.2c-1.2,0.4-2,0.9-2.5,1.2c-0.6,0-1.2,0.3-2,0.7l-1,0.6l-0.9,0.6c-0.7,0.3-1.6,0.7-2.6,1.2l-1.2,0.7
		c-0.5,0.3-0.9,0.5-1.3,0.6l-0.1,0.2L9,27.8c-0.1,0.1-0.2,0.3-0.2,0.4c-0.1-0.1-0.3-0.2-0.6-0.2c-0.1,0.3-0.6,0.7-1.3,1.2
		c-0.4,0.3-0.7,0.5-0.9,0.6c-0.3,0.2-0.5,0.5-0.7,0.8c-0.1,0-0.2-0.1-0.3-0.1H4.9l-0.1,0.1H4.6c-0.6,0.6-1.4,1.3-2.4,2.3l-1.1,1.1
		L0,35c0,0.3,0.1,0.7,0.4,1.1l0.3,0.4c0.1,0.2,0.1,0.4,0.2,0.6c0.1,0,0.2,0,0.3,0.1l0.2,0.1l0.2,0.1v0.1c0,0.1,0,0.1-0.1,0.1H1.3
		l0.6,1l0.4,0.1l0.4,0.1h0.2c0.2,0,0.4-0.1,0.5-0.2c0.2-0.1,0.4-0.3,0.6-0.6l0.4-0.7c0.4-0.6,0.8-1.1,1.1-1.3l0.1-0.1L6,35.5
		c0.1-0.1,0.2-0.2,0.4-0.3l0.8-0.5l0.8-0.6c0.6-0.4,1-0.9,1.2-1.4c0.1,0,0.2,0.1,0.3,0.1c0.3,0,0.6-0.1,0.8-0.4l0.4-0.4
		c0.2-0.2,0.3-0.4,0.4-0.4c0.1-0.1,0.3-0.2,0.4-0.2l0.2-0.1l0.2-0.1c0.2-0.1,0.3-0.2,0.3-0.4v-0.1l0.6,0.1c0.1-0.2,0.3-0.4,0.3-0.6
		c0.5-0.2,1.1-0.5,1.8-0.9l1-0.6l0.9-0.5c1.5-0.8,2.7-1.3,3.8-1.4c0-0.1,1.3-0.9,1.4-0.9c0.7-0.5,1.9-1,3.6-1.5l1-0.3l0.9-0.3
		c0.7-0.3,1.2-0.5,1.6-0.8h0.7c0.4-0.1,0.9-0.3,1.4-0.4l-0.3,1c-0.1,1.7-0.5,4.1-1.2,7l-0.4,1.7L28.9,34c-0.3,1.3-2.3,9.6-3.1,12.8
		l-1.1,4.2l-0.6,2.1l-0.6,2v0.3l0.1,0.2c0.1,0.2,0.1,0.4,0.1,0.6c-0.3,0.3-0.6,0.7-0.8,1.3c-0.1,0.5-0.3,1-0.3,1.5h-0.1
		c0,0.3,0,0.7-0.1,1.1h0.1c0,0.3-0.1,0.5-0.3,0.7L22,61.5v0.3c-0.1,0.3-0.1,0.6-0.2,0.8c-0.5,2-1.2,4.8-2.2,8.6h-0.1
		c-0.3,0-0.6,0.1-0.9,0.3l-0.5,0.3l-0.5,0.3c-0.3,0.1-0.8,0.3-1.5,0.6L15.4,73c-0.3,0.1-0.6,0.2-0.8,0.2c0,0.1,0,0.2-0.1,0.3
		c0,0-0.3,0.1-0.4-0.1c-0.1,0.3-0.3,0.5-0.8,0.7L13,74.3l-0.2,0.2c-0.2,0.1-0.6,0.4-0.7,0.4H12c-0.4,0.3-0.9,0.8-1.5,1.3l-0.7,0.6
		l-0.7,0.7c0,0.3,0.1,0.7,0.2,1.1l0.1,0.5c0,0.2,0.1,0.4,0.1,0.6l0.1,0.1l0.1,0.2c0.1,0.1,0.1,0.2,0.2,0.2v0.1c0,0,0,0.1-0.1,0.1
		l-0.1-0.1l0.3,1.1l0.2,0.2l0.2,0.2c0.1,0.1,0.2,0.1,0.3,0.1c0.1,0,0.1,0,0.2-0.1c0.1-0.1,0.2-0.2,0.3-0.4l0.3-0.5
		c0.2-0.4,0.4-0.7,0.7-0.8h0.1l0.3-0.2c0.1-0.1,0.1-0.2,0.2-0.2l0.5-0.2l0.5-0.3c0.4-0.2,0.9-0.8,1.1-0.8s0.2-0.1,0.3-0.2l0.2-0.3
		c0.1-0.1,0.2-0.2,0.3-0.3c0.1-0.1,0.1-0.1,0.2-0.1h0.2c0.1,0,0.2-0.1,0.2-0.3v-0.2c0,0,0.5-0.1,0.6-0.3c0.3-0.1,0.7-0.2,1.2-0.5
		c-0.7,2.5-1.2,4.8-1.7,6.6c-1.9,7.6-3.3,14.9-4.3,21.9L12.2,105.5z"/>
	<path class="st0" d="M59.7,59.3c0.2,0,0.5,0.1,0.8,0.1c0.2,0,0.4,0.1,0.7,0.2l0.6,0.3c0.3,0.1,0.5,0.2,0.7,0.2c0.1,0,0.3,0,0.4-0.1
		l0.1-0.1v-0.3c0.1-0.1,0.2-0.3,0.3-0.5c0.1-0.3,0.2-0.5,0.3-0.8c0.2-0.5,0.3-0.9,0.3-1.3c0-0.1,0-0.2-0.1-0.3
		c0-0.1-0.1-0.3-0.3-0.4L63.1,56l-0.5-0.3c-0.4-0.3-0.8-0.5-1-0.7c-0.1-0.1-0.3-0.2-0.6-0.3l-0.2-0.1c-0.2-0.1-0.4-0.2-0.7-0.2h-0.2
		c-0.3,0.1-0.4,0.2-0.4,0.4l-0.1,0.9l-0.1,0.9c-0.1,0.6-0.3,1.1-0.5,1.5c0,0-0.1,0.1-0.1,0.2v0.1l0.1,0.3v0.1L59.7,59.3z"/>
	<path class="st0" d="M185.1,58.8l0.7,0.6c0.2,0,0.5,0.1,0.8,0.1c0.2,0,0.4,0.1,0.7,0.2l0.6,0.3c0.3,0.1,0.5,0.2,0.7,0.2
		c0.1,0,0.3,0,0.4-0.1l0.1-0.1v-0.3c0.1-0.1,0.2-0.3,0.3-0.5c0.1-0.3,0.2-0.5,0.3-0.8c0.2-0.5,0.3-0.9,0.3-1.3c0-0.1,0-0.2-0.1-0.3
		c0-0.1-0.1-0.3-0.3-0.4l-0.5-0.3l-0.5-0.3c-0.4-0.3-0.8-0.5-1-0.7c-0.1-0.1-0.3-0.2-0.6-0.3l-0.2-0.1c-0.2-0.1-0.4-0.2-0.7-0.2
		h-0.2c-0.3,0.1-0.4,0.2-0.4,0.4l-0.1,0.9l-0.1,0.9c-0.1,0.6-0.3,1.1-0.5,1.5c0,0-0.1,0.1-0.1,0.2v0.1l0.1,0.3V58.8z"/>
	<path class="st0" d="M191.4,103.6c-0.2,0.9-0.5,2-0.7,3.6l-0.1,1l-0.2,0.9c-0.1,0.7-0.3,1.2-0.6,1.7l0.3,0.6
		c-0.1,0-0.3,0.1-0.4,0.4l-0.2,0.3c-0.1,0.1-0.2,0.1-0.3,0.2c0,0.3,0.1,0.5,0.1,0.8c0,0.8-0.1,1.8-0.4,3l-0.3,1.2l-0.3,1.2l-0.3,0.8
		l-0.1,0.2L188,120c-0.1,0.1-0.2,0.3-0.3,0.4l0.2,0.3l-0.1,0.2c-0.2,0.1-0.3,0.2-0.3,0.4l0.1,0.4c0,0.1,0,0.3-0.1,0.4l-0.2,0.6
		l-0.3,0.5c-0.1,0.2-0.1,0.4-0.1,0.6c0,0.2,0.1,0.4,0.2,0.6v0.1c-0.4,0.3-0.6,0.9-0.8,1.6l-0.1,1l-0.1,0.9v0.1c0,0.1,0,0.2-0.1,0.3
		v0.1l-0.2,0.6v0.1c0,0.4-0.2,0.9-0.6,1.5l-0.4,0.7c-0.1,0.3-0.2,0.6-0.2,0.8v0.2c0,0.2,0.1,0.4,0.2,0.6l0.3,0.3l0.3,0.3l1.1,0.1
		c0,0-0.1-0.1-0.1-0.2c0-0.1,0.1-0.1,0.1-0.1c0.1,0.1,0.2,0.1,0.3,0.2l0.2,0.1l0.2,0.2c0.1-0.1,0.3-0.2,0.6-0.2l0.5,0.1h0.2
		c0.3,0,0.6-0.1,0.9-0.2l0.4-1.6c0.4-0.1,0.6-0.3,0.6-0.6v-0.2l0.2-0.1c0-0.7,0.3-1.4,0.7-2v-0.3l0.1-1l0.2-1v-0.2l-0.1,0.2
		l-0.1,0.2c-0.1-0.1-0.2-0.1-0.2-0.2c0-0.1,0-0.1,0.1-0.2l0.1-0.2l0.1-0.2l0.1,0.1c0-0.2,0.1-0.4,0.1-0.6l-0.2,0.1
		c0-0.4,0.1-0.9,0.2-1.3c0.1-0.3,0.3-0.5,0.4-0.7l-0.2-0.3l0.2-0.7l0.2-0.1c0-0.4,0-0.8,0.1-1.3c0.1-0.2,0.2-0.5,0.3-0.8l0.2-0.8
		c0.2-0.7,0.4-1.3,0.6-1.7c0.1-0.1,0.1-0.2,0.1-0.3c0-0.4,0.1-0.8,0.3-1.3l0.4-1.3c0.4-1.1,0.6-2,0.7-2.6c0,0,0.1,0,0.2-0.1l0.1-0.1
		l0.2-0.1V112c0-0.4,0.1-0.9,0.3-1.5l0.2-0.7c0.1-0.3,0.1-0.6,0.1-0.8v-0.2c0-0.1,0-0.1,0.1-0.2c0.2-0.4,0.4-0.8,0.6-1.4l0.5-1.5
		c0.4-1.3,0.9-2.2,1.2-2.8v-0.2l-0.1-0.1c0,0-0.1-0.1-0.1-0.2v-0.1c0.3-0.4,0.6-1.1,1-2.2c0.2-0.5,0.3-0.9,0.4-1.2
		c0.2-0.4,0.4-0.8,0.6-1.1c0.1-0.1,0.1-0.2,0.1-0.3v-0.3c0-0.3,0.1-0.6,0.3-1l0.3-0.6c0.1-0.1,0.2-0.3,0.3-0.4
		c0-0.1,0.1-0.1,0.1-0.2c0.1-0.6,0.4-1.5,0.9-2.5l0.7-1.3l0.6-1.3c0,0.1,0,0.3,0.1,0.3l0.3,0.3c0.1,0.1,0.1,0.1,0.2,0.2
		c0.4,1.2,1.1,2.1,2.1,2.7c0.7,0.5,1.6,0.7,2.6,0.7c0.3,0,0.6,0,0.9-0.1l0.4-0.1l0.4-0.1c0.3-0.1,0.6-0.2,0.9-0.3
		c0.4-0.2,0.9-0.5,1.3-0.8c0.6-0.4,1.2-0.9,1.8-1.5l0.1-0.1c0.5-0.1,1-0.5,1.4-1.1l0.3-0.3l0.3-0.3c0.2-0.2,0.5-0.4,0.7-0.5l0.1-0.1
		c0.4-0.4,0.8-0.9,1.2-1.5l0.6-0.7l0.6-0.7c0.9-1.2,1.5-2.2,1.8-3.2l0.1-0.1c1.5-1.8,2.7-4.1,3.5-6.9l0.3-0.9l0.2-1l0.3-1l0.1-0.3
		l0.1-0.4c0-0.3,0.1-0.6,0.1-0.7v-0.6c0-0.6,0-1.2-0.1-1.9c0-0.4-0.1-0.8-0.2-1.2l-0.2-0.6c0-0.2-0.1-0.5-0.3-0.8l-0.1-0.2
		c-0.6-0.8-1.1-1.3-1.5-1.6c-0.3-0.3-0.6-0.5-0.9-0.6c-0.2-0.1-0.6-0.3-1-0.4c-0.5-0.1-1-0.2-1.6-0.2c-0.2,0-0.4,0-0.6,0.1
		c-0.4,0.1-0.9,0.2-1.2,0.3l-0.5,0.2c-0.1,0-0.3,0-0.4,0.1l-0.2,0.1h-0.2c-0.1,0-0.1,0.1-0.2,0.1l-0.3,0.3l-0.3,0.2l-0.4,0.2
		l-0.6,0.3l-0.6,0.3c-0.4,0.2-0.8,0.4-1.1,0.6c-0.2,0.1-0.3,0.2-0.4,0.3c0,0.1-0.1,0.1-0.2,0.2c0,0.1-0.1,0.1-0.1,0.2
		c-0.1,0.1-0.1,0.1-0.2,0.2c-1.8,1.4-3.6,3.2-5.2,5.4c-1.5,2-2.7,4.1-3.7,6.3l-0.1,0.2c-0.5,0.5-1,1.3-1.4,2.4l-0.6,1.3
		c-0.2,0.4-0.5,0.9-0.7,1.2l-0.1,0.1c-0.3,0.8-0.7,1.7-1.2,2.8l-1.2,2.7l0.6-3.7l0.6-3.8c0.5-3,1-5.4,1.3-7.2h0.2l0.2,0.1l-0.2-0.2
		l-0.2-0.2c-0.1-0.1-0.2-0.3-0.2-0.5c0.3-0.2,0.5-0.5,0.5-0.9l0.1-0.4c0.1-0.2,0.2-0.3,0.3-0.4v-0.7c0-0.5,0-1.1,0.1-1.6l0.1-1.1
		L202,68c0.1-0.9,0.2-1.7,0.2-2.5c0-0.8-0.1-1.6-0.2-2.2c0.2-0.2,0.3-0.5,0.3-0.7c0-0.3-0.1-0.5-0.3-0.8c-0.4-0.5-0.9-0.9-1.6-1.3
		c-0.3,0-0.6,0-1-0.1l-0.4-0.1l-0.4-0.1h-0.3c-0.5,0-0.9,0.1-1.3,0.2c0.1,0.1,0.1,0.2,0.1,0.3c0,0.1-0.1,0.3-0.2,0.4l-0.2,0.3
		c-0.1,0.1-0.1,0.2-0.1,0.3c0.1,0.6,0.2,1.3,0.2,2.1c0,0.5,0,1.1-0.1,1.7l-0.1,0.9l-0.1,0.9v0.7c0,0.4,0,0.8,0.1,1.2
		c-0.2,0.9-0.3,1.8-0.4,2.6c0,0.1-0.1,0.1-0.1,0.2c-0.5,0.7-0.8,1.3-1.1,1.7l-0.3,0.5c-0.1,0.2-0.2,0.4-0.3,0.6v0.1h0.1l0.1,0.1
		l0.1,0.1c-0.3,0.1-0.7,0.4-1,1l-0.4,0.6c-0.2,0.2-0.4,0.4-0.5,0.5c-0.1,0-0.1,0.1-0.2,0.2c-0.1,0.3-0.2,0.5-0.4,0.8l-0.6,0.7
		c-0.5,0.6-0.8,1.2-1,1.6c0,0-0.1-0.1-0.1-0.1c0,0-0.1,0-0.1,0.1l-0.1,0.1h-0.2c0,0.3-0.2,0.6-0.5,1l-0.4,0.4
		c-0.1,0.1-0.1,0.3-0.2,0.5c0,0.1,0,0.2-0.1,0.2c-0.2,0.2-0.5,0.4-0.8,0.7l-0.7,0.8c-0.6,0.7-1.1,1.1-1.5,1.3l-0.1,0.2l0.1,0.1
		c0,0,0.1,0.1,0.1,0.1l-0.1,0.1l-0.2,0.1l-0.1,0.1l-0.2,0.1l-0.3,0.3c-0.1,0.1-0.2,0.2-0.3,0.2c-0.1,0-0.3-0.1-0.3-0.2h-0.1
		c0,0-0.1,0-0.1,0.1c-0.1,0.1-0.1,0.1-0.2,0.1c0,0-0.1,0-0.1-0.1l-0.1-0.2l0.1-0.3c0,0,0-0.1-0.1-0.1c-0.2-0.1-0.3-0.3-0.3-0.7V85
		l0.1-0.3v-0.5c0-0.2,0.1-0.4,0.1-0.6c0-0.2,0-0.4-0.1-0.6v-0.1l0.1-0.4l0.2-0.4c0.1-0.2,0.2-0.4,0.2-0.7c0-0.1,0-0.2-0.1-0.3v-0.1
		c0-0.1,0.1-0.3,0.2-0.3l0.2-0.1l0.1-0.1c-0.2,0-0.4-0.1-0.4-0.2c0.1-0.1,0.1-0.3,0.2-0.5l0.1-0.6c0.1-0.4,0.2-0.8,0.4-1
		c0-0.1,0.1-0.2,0.1-0.3c0-0.1-0.1-0.3-0.1-0.4c0-0.2,0-0.4,0.1-0.5l0.2-0.4l0.2-0.4c0.2-0.5,0.3-1,0.3-1.4c0-0.2,0-0.4-0.1-0.6
		v-0.1c0-0.1,0.1-0.2,0.2-0.3c0.2-0.2,0.4-0.4,0.5-0.8c0-0.2,0.1-0.4,0.1-0.6v-0.5c0.3-0.5,0.6-1.2,0.9-2.2l0.3-1.1
		c0.1-0.4,0.3-0.8,0.5-1.1c-0.1,0-0.1-0.1-0.1-0.1v-0.1l0.1-0.1v-0.4c0.3-0.4,0.4-0.8,0.4-1.3c0-0.3,0-0.5-0.1-0.8
		c0-0.1-0.1-0.3-0.3-0.4L187,64l-0.6-0.3c-0.4-0.3-0.8-0.5-1-0.7c-0.1-0.1-0.4-0.3-0.6-0.3l-0.3-0.1c-0.2-0.1-0.4-0.2-0.7-0.2h-0.2
		c-0.2,0-0.3,0.1-0.4,0.2c-0.3-0.3-0.7-0.5-1-0.7c-0.6-0.4-1.3-0.6-2-0.6c-1.1,0-2.4,0.3-3.8,1l-0.3,0.2c-2.6,1.4-4.8,3.3-6.6,5.7
		l-0.2-0.3c0,0-0.1-0.1-0.1-0.1c0,0,0-0.1,0.1-0.1c0.2-0.1,0.3-0.4,0.3-0.6v-0.2c0-0.1,0-0.3-0.1-0.4v-0.1c0.2-0.4,0.3-0.9,0.3-1.6
		l0.1-0.7c0.1-0.3,0.2-0.6,0.3-0.8c-0.1,0-0.2-0.1-0.2-0.1V63l-0.1-0.1c0,0-0.1-0.1-0.1-0.1v-0.1c0.1-0.1,0.1-0.3,0.1-0.5
		c0-0.3-0.1-0.7-0.4-1c-0.1-0.1-0.2-0.1-0.5-0.2l-0.6-0.1l-0.7-0.1c-0.6-0.1-1-0.1-1.3-0.2c-0.2,0-0.4-0.1-0.7-0.1l-0.3-0.1h-0.3
		c-0.2,0-0.4,0-0.6,0.1c-0.2,0.1-0.3,0.2-0.3,0.3v0.1c0.2,0.4,0.4,0.8,0.4,1.1c0,0.1,0.1,0.2,0.1,0.3c0,0.2-0.1,0.4-0.2,0.6V63
		l0.2,0.2l0.1,0.1l-0.2,1.5l-0.2,1.5c0,0.8-0.1,1.6-0.1,2.2v0.9c-0.2,0.2-0.3,0.5-0.3,0.8v0.3l0.1,0.6c0,0.2-0.1,0.4-0.2,0.6V72
		c0,0.3,0,0.6-0.1,0.9l-0.1,0.2l-0.3,0.5c-0.5,0.9-0.8,1.5-0.9,1.8c-0.5,0.6-0.9,1.3-1.2,2c-0.3,0.7-0.5,1.5-0.7,2.4
		c-1.8,3.1-3.1,5.8-3.7,8H157c-0.1,0-0.2,0.1-0.2,0.2l-0.1,0.2c0,0,0,0.1-0.1,0.1v0.1l0.1,0.1l0.1,0.1c0.1,0,0.2,0.1,0.2,0.2
		l-0.4-0.1l-0.3,0.7l-0.1,0.1h0.1l-0.1,0.1l-0.1,0.4c0,0.1-0.1,0.2-0.2,0.3l-0.1,0.1v0.1c-0.2,0.3-0.5,0.8-0.8,1.5l-0.4,0.9
		l-0.4,0.8c0,0-0.9,1.2-1.2,2.1l-0.2,0.5l-0.3,0.4c-0.2,0.3-0.4,0.6-0.7,0.8l-0.5,0.7c-0.3,0.6-0.6,1.2-1.2,1.9l-0.8,0.9
		c-0.3,0.3-0.5,0.6-0.7,0.9c-0.1,0-0.3,0-0.4,0.1l0.1,0.4c-0.1-0.1-0.2-0.1-0.3-0.1c-0.1,0-0.1,0-0.2,0.1l-0.1,0.2
		c0,0.1-0.1,0.1-0.1,0.2c-0.1,0.1-0.2,0.1-0.3,0.2l-0.3,0.2c-0.2,0.1-0.3,0.2-0.3,0.3c0,0.1,0,0.1,0.1,0.2h-0.2
		c-0.3,0-0.6,0.1-0.9,0.3l-0.3,0.3l-0.3,0.2c-0.4-1.8-0.7-4.2-0.7-7.3c0-0.9,0-2.2,0.1-3.9l0.1-1.9v-1.8c0.5-3.6,1.2-7.6,2.1-12.1
		l1.2-5.8l0.7-2.9l0.7-3c0.5-1.1,1-2.5,1.5-4.4l0.2-1l0.3-1c0.2-0.7,0.4-1.3,0.6-1.8c-0.1,0-0.2-0.1-0.3-0.2
		c-0.1-0.1-0.1-0.2-0.2-0.4c0.8-0.1,1.2-0.6,1.2-1.2c0-0.2-0.1-0.5-0.2-0.8c0.4-0.1,0.7-0.6,0.8-1.4l0.1-0.4l0.1-0.4
		c0.1-0.3,0.3-0.5,0.5-0.6V52c0-0.1-0.1-0.1-0.2-0.2l-0.1-0.1v-0.2c0.4-0.1,0.7-0.5,0.9-1c0.1-0.2,0.1-0.5,0.2-0.8l0.2-0.8l0.1,0.1
		c0.1-0.5,0.2-1,0.4-1.5v-0.2l0.1-0.2l0.1-0.3c0-0.1,0-0.2-0.1-0.4h0.2c0.2-0.4,0.4-0.9,0.7-1.3c0.1-0.6,0.3-1.2,0.7-2l2.2-0.2
		l2.2-0.1c0.8,0,1.6-0.1,2.3-0.1c0.7,0,1.4,0,2.1,0.1c0.6-0.3,1.4-0.4,2.6-0.5l1.3-0.1c0.5-0.1,1-0.2,1.3-0.3l0.1,0.2
		c0.1-0.1,0.3-0.1,0.4-0.1s0.2,0,0.3,0.1h0.1l0.5-0.2c0.1,0,0.2-0.1,0.3-0.1c0.1,0,0.1,0,0.2,0.1c0.3-0.1,0.4-0.3,0.4-0.7
		c0-0.1,0-0.3-0.1-0.4c-0.1-0.8-0.2-1.5-0.2-2.1l-0.1-0.3c0-0.1,0.1-0.3,0.1-0.4c0-0.3,0-0.5-0.1-0.8c-0.1-0.1-0.2-0.1-0.3-0.1
		c-0.1,0-0.2,0-0.3,0.1l-0.1-0.1c-0.2,0.1-0.4,0.1-0.6,0.1c-0.2,0-0.4-0.1-0.7-0.2l-0.2,0.1c-0.3,0.1-0.7,0.2-1.3,0.3l-0.1,0.1h0.1
		l0.1,0.1c0,0.2-0.1,0.3-0.2,0.3l-0.2-0.1h-0.1v-0.2c-0.1,0.1-0.3,0.1-0.4,0.1l0.1,0.1c-0.4,0.1-0.8,0.2-1.2,0.3l-0.6,0.1
		c-0.2,0-0.4,0-0.6,0.1l-0.1,0.1l0.1,0.1v0.1c-0.2-0.1-0.5-0.2-0.8-0.2c-0.1,0-0.3,0-0.5,0.1h-0.7c-0.2,0-0.4-0.1-0.6-0.2
		c-0.3,0.1-0.6,0.2-0.9,0.2h-0.8c-0.8,0-1.4,0.1-1.8,0.3c0-0.1,0-0.1-0.1-0.2l-0.1-0.1l-0.1-0.2c-0.1,0.1-0.3,0.2-0.5,0.2l-0.5,0.1
		c0-0.1,0.1-0.2,0.1-0.3c0-0.2,0-0.4-0.1-0.6h0.1c0.1,0,0.3-0.1,0.3-0.2l0.1-0.1l0.1-0.1c0.1-0.1,0.2-0.1,0.3-0.1
		c0.5-1.5,1.2-3.4,2.3-5.6l0.7-1.4l0.7-1.5c0.5-1.2,1-2.3,1.4-3.2c0.1-0.1,0.1-0.2,0.1-0.3c0,0,0-0.1-0.1-0.1l-0.1-0.1v-0.2
		c0.2,0,0.4-0.2,0.6-0.5l0.2-0.4c0.1-0.1,0.2-0.2,0.3-0.2c0.4-0.9,0.9-2.1,1.5-3.5l0.8-1.8l0.8-1.8c1.3-3,2.2-5.6,2.7-7.8
		c-0.2-0.6-0.5-1.2-1-1.8c-0.3-0.5-0.7-0.9-1.2-1.3c-0.2-0.2-0.4-0.3-0.7-0.3c-0.3,0-0.7,0.2-0.9,0.6c-0.2,0.2-0.4,0.5-0.5,0.8
		l-0.1,0.3c0,0.1-0.1,0.2-0.1,0.3c0.1,0,0.1-0.1,0.1-0.2c0.1,0,0.1,0,0.1,0.1V7c0,0.1-0.1,0.1-0.1,0.2h-0.2
		c-0.1,0.7-0.4,1.2-0.6,1.6c-0.2,0.3-0.5,0.7-0.7,1.2l-0.6,1.2c-0.5,1.5-1.5,3.7-2.9,6.6c-0.7,1.4-1.2,2.5-1.6,3.3
		c-0.6,1.3-1,2.5-1.3,3.6l-0.2,0.1l-0.2,0.1c-0.1,0.1-0.2,0.2-0.4,0.2c-0.7,1.9-1.7,4.1-2.8,6.8l-1.5,3.4l-1.5,3.4l-0.6,0.1
		l-0.7,0.2c-0.1,0-0.3,0.1-0.4,0.1c-0.4,0-0.7-0.1-0.9-0.2c-0.1,0.3-0.4,0.4-0.8,0.4c-0.1,0-0.3,0-0.5-0.1c-0.1,0-0.3,0-0.4-0.1
		c-0.3,0.1-0.6,0.2-1,0.3l-0.6,0.1l-0.6,0.1c-0.1,0-0.2,0-0.3,0c0.2-0.5,0.5-1.1,0.8-1.8c0-0.1,0-0.2-0.1-0.3l-0.1-0.2
		c-0.1-0.1-0.2-0.2-0.2-0.3v-0.1c0.4,0,0.6-0.2,0.8-0.6c0.1-0.2,0.1-0.4,0.1-0.6c0-0.2,0-0.4-0.1-0.6h0.1c0.1,0,0.3-0.1,0.3-0.3
		l0.1-0.1l0.1-0.1c0-0.1,0.1-0.1,0.3-0.1c0.4-1.6,1.2-3.6,2.2-6l0.7-1.5l0.7-1.6c0.5-1.2,1-2.4,1.4-3.5c0.1-0.1,0.1-0.2,0.1-0.3
		c0,0,0-0.1-0.1-0.1l-0.1-0.1v-0.2c0.2,0,0.4-0.2,0.5-0.6l0.2-0.4c0.1-0.1,0.2-0.2,0.3-0.2c0.4-1,0.9-2.3,1.5-3.8l0.8-1.8l0.8-2
		c1.3-3.2,2.1-5.9,2.6-8.3c-0.2-0.6-0.5-1.2-1-1.8c-0.4-0.5-0.8-0.9-1.2-1.3c-0.2-0.2-0.5-0.3-0.7-0.3c-0.3,0-0.7,0.2-1,0.6
		c-0.1,0.2-0.3,0.5-0.4,0.8l-0.2,0.4c0,0.1,0,0.2-0.1,0.3c0,0,0.1-0.1,0.1-0.2c0,0,0.1,0,0.1,0.1V3c0,0.1-0.1,0.1-0.1,0.2h-0.2
		L155,4c-0.1,0.1-0.2,0.4-0.3,0.8l-0.1,0.1v0.1l-0.2,0.1c-0.4,1-0.9,1.8-1.5,2.5l-0.1,0.3l-0.4,1.3l-0.5,1.2v0.2l0.1-0.2l0.1-0.2
		c0.1,0,0.1,0.1,0.2,0.2l-0.2,0.4l-0.2,0.2l-0.1,0.2l-0.1-0.1c-0.1,0.3-0.2,0.5-0.3,0.8l0.2-0.1l-0.1,0.2l-1.1,2.4l-1.1,2.5
		c-0.9,1.9-1.5,3.7-2,5.2l-0.2,0.1l-0.2,0.2c-0.1,0.1-0.2,0.2-0.4,0.2c-0.8,2.2-1.9,5.1-3.3,8.7l-1.7,4.4c-0.7,1.7-1.2,3.1-1.6,4.2
		c0,0.1-0.1,0.2-0.1,0.4l0.1,0.3l-0.1,0.1v0.3l0.1,0.1v0c-0.1,0-0.2,0-0.3,0c-0.2,0-0.4,0-0.5-0.1c-0.2,0.3-0.5,0.4-0.8,0.5
		l-0.4,0.1h-0.5c-0.8,0.1-1.4,0.4-1.8,0.9c-0.2-0.1-0.4-0.2-0.7-0.2c-0.1,0-0.3,0-0.4,0.1c-0.3,0.1-0.6,0.3-0.8,0.6
		c-0.7,0-1.4,0.2-2.2,0.6l-1,0.4c-0.4,0.1-0.8,0.3-1.2,0.3V44c0,0.1,0,0.1-0.1,0.2l-0.1,0.1c0,0-0.1,0.1-0.1,0.2
		c-0.9,0.1-1.5,0.7-2,1.6c0,0.2,0.1,0.5,0.2,0.8l0.3,0.8c0.3,0.7,0.5,1.2,0.5,1.6c0.1,0.2,0.3,0.4,0.4,0.6c0.1,0.3,0.4,0.6,0.6,0.7
		c0.1,0.1,0.2,0.2,0.3,0.2c0.1,0,0.1,0,0.2-0.1l0.5-0.6l0.6-0.5c0.4-0.3,0.8-0.5,1.2-0.5l0.2-0.5c0.8-0.4,2.1-0.9,3.9-1.5l1.8-0.7
		c-0.2,0.3-0.3,0.5-0.5,0.7c0,0.1,0.1,0.2,0.1,0.4c0,0.4-0.1,0.9-0.4,1.5c-0.1,0.3-0.3,0.5-0.4,0.8c-0.1,0.2-0.3,0.4-0.4,0.7
		c-0.1,0.9-0.7,2.2-1.5,4.1c-0.4,0.9-0.7,1.7-0.9,2.2c-0.3,0.9-0.5,1.6-0.7,2.3c-0.1,0.1-0.2,0.4-0.4,0.8l-0.2,0.4l-0.3,0.5
		c-0.4,0.8-0.6,1.5-0.6,2.1c-0.2,0-0.3,0-0.4,0.1l-0.2,0.1l-0.2,0.2c0.2,0,0.3,0.2,0.3,0.4l-0.4,0.8l-0.4,0.8
		c-0.3,0.7-0.5,1.3-0.7,1.6l-0.1-0.1c-0.6-1.2-1.4-2-2.3-2.6c-0.5-0.3-1-0.5-1.6-0.6c-0.3-0.1-0.6-0.1-0.9-0.1c-0.3,0-0.6,0-0.9,0.1
		l-0.4,0.1l-0.4,0.2l-0.8,0.4l-0.8,0.6c-0.2,0.1-0.3,0.2-0.4,0.3c-0.6,0.4-1.1,0.9-1.6,1.5l-0.1,0.1c-0.5,0.1-0.9,0.4-1.3,1
		l-0.5,0.7c-0.2,0.2-0.4,0.4-0.7,0.6l-0.1,0.1l-1.1,1.5l-1.1,1.4c-0.4,0.4-0.7,1-1,1.5l-0.4,0.8l0,0c-1.2,1.9-1.9,3.2-2,3.8
		c0,0.1-0.1,0.2-0.1,0.3c-0.2,0.2-0.4,0.5-0.5,0.8c-0.1,0.2-0.2,0.5-0.2,0.7c0,0.1,0,0.2,0.1,0.3c0,0.1-0.1,0.3-0.2,0.4
		c-0.4,0.4-0.8,1-1,1.8l-0.2,0.5l-0.1,0.4c-0.1,0.3-0.3,0.6-0.6,0.8c-0.1,0.1-0.2,0.2-0.2,0.3c0,0.3-0.1,0.6-0.3,1.1l-0.3,0.6
		l-0.2,0.5c0,0-0.1,0.1-0.2,0.1c-0.1,0-0.1,0-0.2-0.1v0.2l0.1,0.2c0,0.1,0.1,0.1,0.1,0.2c0,0.1,0,0.1-0.1,0.2
		c-0.2,0.2-0.4,0.5-0.5,0.9l-0.1,0.5l-0.2,0.4l-0.1,0.1c-0.2,0.3-0.4,0.7-0.7,1.1c-0.1,0.3-0.3,0.7-0.6,1.2c-0.4,1-0.8,1.7-1.1,2.1
		l-0.1,0.2l-0.1,0.4l-0.1,0.4c-0.1,0.3-0.3,0.6-0.6,0.7c-0.1,0.1-0.2,0.2-0.2,0.3c-0.1,0.4-0.3,1-0.8,1.6l-0.3,0.4
		c-0.1,0.1-0.1,0.1-0.1,0.2c-0.1,0.1-0.1,0.3-0.1,0.4h-0.1l-0.1-0.1l-0.1-0.1h-0.1c-0.1,0.4-0.3,0.7-0.7,0.8c-0.1,0-0.1,0-0.2-0.1
		l-0.2-0.2l-0.4-0.3v-0.3c0-0.1,0-0.3-0.1-0.4c0-0.1-0.1-0.2-0.1-0.3V97c0-0.1,0-0.3,0.1-0.4l-0.2-0.1l-0.1-0.1
		c0-0.1-0.1-0.1-0.2-0.1V96c0-0.3,0-0.6-0.1-0.9L99,94.6l-0.1-0.6v-4.2l0.1-2.1l0.1-2l0.2-0.9l0.1-0.2c-0.1-0.2-0.2-0.4-0.2-0.7
		l0.1-0.8c0.4-3.4,1.1-7.1,2-11.3l1.2-5.5l0.6-2.7l0.6-2.8c0.5-1.1,1-2.5,1.5-4.4l0.3-1l0.2-1c0.2-0.7,0.4-1.3,0.6-1.7
		c-0.1,0-0.2-0.1-0.3-0.2c-0.1-0.1-0.1-0.2-0.2-0.4c0.8-0.1,1.2-0.6,1.2-1.2c0-0.2-0.1-0.5-0.2-0.8c0.4-0.1,0.7-0.6,0.8-1.4l0.1-0.4
		l0.1-0.4c0.1-0.3,0.3-0.6,0.5-0.7V47c0-0.1-0.1-0.1-0.2-0.2l-0.1-0.1v-0.2c0.4-0.1,0.7-0.5,0.9-1.1c0-0.2,0.1-0.4,0.2-0.7l0.2-0.8
		h0.1c0.1-0.5,0.2-1,0.4-1.4v-0.2l0.1-0.2l0.1-0.3c0-0.1,0-0.2-0.1-0.4h0.2c0.2-0.5,0.4-0.9,0.7-1.3c0.2-0.9,1-2.7,2.3-5.5
		c0-0.1-0.1-0.2-0.2-0.4l-0.1-0.2c0-0.1-0.1-0.1-0.1-0.2c0.4,0,0.7-0.2,0.8-0.5c0.1-0.2,0.1-0.4,0.1-0.5c0-0.2,0-0.4-0.1-0.6h0.1
		c0.1,0,0.3-0.1,0.3-0.2l0.1-0.1l0.1-0.1c0-0.1,0.1-0.1,0.3-0.1c0.5-1.5,1.2-3.4,2.3-5.6l0.7-1.5l0.7-1.5c0.6-1.2,1-2.2,1.5-3.2
		c0-0.1,0.1-0.2,0.1-0.3v-0.1l-0.1-0.1v-0.1c0.2,0,0.4-0.2,0.5-0.5l0.2-0.4c0.1-0.1,0.2-0.2,0.3-0.2c0.4-1,0.9-2.1,1.6-3.5l0.8-1.8
		l0.8-1.8c1.3-3,2.2-5.6,2.7-7.8c-0.2-0.6-0.5-1.2-0.9-1.8c-0.4-0.5-0.8-0.9-1.2-1.3C124,0.1,123.7,0,123.5,0
		c-0.3,0-0.7,0.2-0.9,0.6c-0.1,0.2-0.3,0.5-0.4,0.8l-0.2,0.3c0,0.1-0.1,0.2-0.1,0.3c0,0,0.1-0.1,0.1-0.2c0,0,0.1,0,0.1,0.1L122,2.1
		c0,0.1,0,0.1-0.1,0.2h-0.2c-0.1,0.7-0.4,1.2-0.7,1.6c-0.2,0.3-0.4,0.7-0.7,1.2l-0.7,1.2c-0.4,1.5-1.4,3.7-2.9,6.6
		c-0.7,1.4-1.3,2.5-1.6,3.3c-0.6,1.2-1,2.4-1.3,3.5l-0.2,0.1l-0.2,0.2c-0.1,0.1-0.2,0.2-0.4,0.2c-0.9,2.1-2,4.8-3.4,8.1l-1.8,4.1
		c-0.7,1.6-1.2,2.9-1.7,4v1.1c-0.3,0.2-0.6,0.6-0.9,1.2c-0.2,0.5-0.4,1-0.5,1.5l-0.1-0.1c0,0.3-0.1,0.7-0.2,1.1h0.1
		c-0.1,0.3-0.2,0.5-0.3,0.7l-0.3,0.7v0.1l-0.1,0.1v0.2c-0.1,0.3-0.2,0.6-0.3,0.8v0.1c-3.5,9.9-6,18.9-7.5,27.2
		c-0.5,0.7-1.3,1.8-2.4,3.1c-1.1,1.6-2,2.7-2.5,3.4c0,0,0,0.1,0.1,0.1l0.1,0.1h0.1v0.1c-0.4,0.2-1,0.7-1.8,1.4l-0.9,0.8
		c-0.4,0.3-0.7,0.5-1,0.6c-0.1,0.1-0.2,0.1-0.3,0.2c-0.5,0.6-1.3,1.2-2.3,1.8L84,83.3c-0.5,0.3-0.9,0.7-1.2,1c0,0-0.1-0.1-0.2-0.1
		h-0.1l-0.2,0.1l-0.2-0.1c-0.3,0.4-0.8,0.7-1.5,1l-0.8,0.4c-0.3,0.1-0.5,0.3-0.7,0.5c-0.1,0.1-0.2,0.2-0.3,0.2l-1.6,0.3
		c-0.6,0.1-1.1,0.2-1.6,0.3c-0.3,0-0.5,0.1-0.7,0.1c-0.9,0-1.5-0.2-2-0.6c0,0-0.1,0-0.1,0.1l-0.1,0.1c-0.1,0.1-0.1,0.1-0.2,0.1
		l-0.3-0.3L72,85.9c-0.2-0.3-0.4-0.5-0.6-0.7l-0.2-0.4h0.1l1.3-0.8l1.3-0.8c0.8-0.5,1.6-1,2.5-1.3c0.2-0.1,0.3-0.2,0.4-0.3l0.2-0.2
		c0-0.1,0.1-0.1,0.2-0.2c0.1-0.1,0.1-0.2,0.2-0.3c2.6-1.9,4.7-4.1,6.1-6.8l0.3-0.5l0.3-0.6l0.1-0.3l0.2-0.4l0.3-0.9
		c0.4-1.4,0.7-2.5,0.7-3.3v-0.2c-0.1-1.1-0.4-2-1.1-2.8c-0.4-0.4-0.8-0.7-1.2-0.9c-0.4-0.2-0.9-0.3-1.4-0.3l-0.3-0.1
		c-0.4-0.1-0.7-0.2-1.1-0.2c-1.2,0-2.6,0.5-4,1.5c-0.2,0.1-0.4,0.3-0.6,0.4l-0.4,0.3l-0.7,0.6l-0.7,0.6l-0.8,0.6l-0.2,0.1
		c-2,2.2-3.5,4.4-4.5,6.5c-0.2,0.4-0.3,0.7-0.5,1.1c-0.2,0.2-0.4,0.4-0.6,0.8l-0.4,0.6c-0.2,0.2-0.4,0.4-0.5,0.5
		c-0.1,0-0.1,0.1-0.2,0.2c-0.1,0.3-0.2,0.5-0.4,0.8L65,78.9c-0.5,0.6-0.8,1.2-1,1.6c0,0-0.1-0.1-0.1-0.1c0,0-0.1,0-0.1,0.1l-0.1,0.1
		h-0.2c0,0.3-0.2,0.6-0.5,1L62.7,82c-0.1,0.1-0.1,0.3-0.2,0.5c0,0.1,0,0.2-0.1,0.2c-0.2,0.2-0.5,0.4-0.8,0.7L61,84.3
		c-0.6,0.7-1.1,1.1-1.5,1.3l-0.1,0.2l0.1,0.1c0,0,0.1,0.1,0.1,0.1l-0.1,0.1l-0.2,0.1l-0.1,0.1L59,86.3l-0.3,0.3
		c-0.1,0.1-0.2,0.2-0.3,0.2c-0.1,0-0.3-0.1-0.3-0.2H58c0,0-0.1,0-0.1,0.1c-0.1,0.1-0.1,0.1-0.2,0.1c0,0-0.1,0-0.1-0.1l-0.1-0.2
		l0.1-0.3c0,0,0-0.1-0.1-0.1c-0.2-0.1-0.3-0.3-0.3-0.7V85l0.1-0.3v-0.5c0-0.2,0.1-0.4,0.1-0.6c0-0.2,0-0.4-0.1-0.6v-0.1l0.1-0.4
		l0.2-0.4c0.1-0.2,0.2-0.4,0.2-0.7c0-0.1,0-0.2-0.1-0.3v-0.1c0-0.1,0.1-0.3,0.2-0.3l0.2-0.1l0.1-0.1c-0.2,0-0.4-0.1-0.4-0.2
		c0.1-0.1,0.1-0.3,0.2-0.5l0.1-0.6c0.1-0.4,0.2-0.8,0.4-1c0-0.1,0.1-0.2,0.1-0.3c0-0.1-0.1-0.3-0.1-0.4c0-0.2,0-0.4,0.1-0.5l0.2-0.4
		l0.2-0.4c0.2-0.5,0.3-1,0.3-1.4c0-0.2,0-0.4-0.1-0.6v-0.1c0-0.1,0.1-0.2,0.2-0.3c0.2-0.2,0.4-0.4,0.5-0.8c0-0.2,0.1-0.4,0.1-0.6
		v-0.5c0.3-0.5,0.6-1.2,0.9-2.2l0.3-1.1c0.1-0.4,0.3-0.8,0.5-1.1c-0.1,0-0.1-0.1-0.1-0.1v-0.1l0.1-0.1v-0.4c0.3-0.4,0.4-0.8,0.4-1.3
		c0-0.3,0-0.5-0.1-0.8c0-0.1-0.1-0.3-0.3-0.4L60.9,64l-0.6-0.3c-0.4-0.3-0.8-0.5-1-0.7c-0.1-0.1-0.4-0.3-0.6-0.3l-0.3-0.1
		c-0.2-0.1-0.4-0.2-0.7-0.2h-0.2c-0.3,0.1-0.4,0.2-0.4,0.4l-0.1,0.9L57,64.5c-0.1,0.6-0.2,1.1-0.5,1.5c0,0.1-0.1,0.2-0.1,0.3
		l0.1,0.3v0.2c-0.6,1.8-1.1,3.4-1.4,4.7c-0.5,1.8-0.8,3.4-1,4.9l-0.1,0.1c-0.3,0.4-0.5,1-0.6,1.8l-0.1,1c-0.1,0.4-0.2,0.7-0.3,1
		l-0.1,0.1c0,0.7-0.1,1.4-0.2,2.1l-0.2,1.2l-0.1,0.6l-0.1,0.6c0,0.3,0,0.5,0.1,0.8c0,0.4,0.1,0.7,0.1,0.8l0.1,0.2l0.1,0.2l0.2,0.5
		l0.4,0.8c0.6,1.2,1.5,2,2.5,2.5l0.2,0.1c0.5,0.3,1.1,0.5,1.7,0.6c0.6,0,1.2-0.1,1.7-0.3L60,91l0.4-0.2l0.8-0.6l0.4-0.3l0.4-0.3
		l0.2-0.2l0.1-0.1l0.2-0.2c0.9-0.8,1.9-2,3.1-3.5l0.8-1.1c0.1,0.7,0.2,1.4,0.4,2.1c0.3,0.9,0.8,1.8,1.3,2.5c0.7,0.7,1.5,1.4,2.3,1.8
		c1.2,0.6,2.6,0.8,4.2,0.8h0.8c1.4-0.1,2.9-0.4,4.4-1c1.2-0.4,2.4-1,3.8-1.7c1.2-0.7,2.3-1.4,3.4-2.1c1.9-1.3,4-2.8,6.3-4.6l0.2-0.2
		c0.3-0.4,0.7-0.9,1.2-1.5c-0.2,1.9-0.4,3.8-0.4,5.6l0.2-0.2L94.5,87l-0.2-0.1v3.6l-0.1,0.2v0.1l0.1,0.8c0.1,1.1,0.2,2.1,0.3,3.1
		c0.1,0.5,0.2,1,0.4,1.5c0.1,0.7,0.2,1.3,0.4,1.9l0.3,1l0.2,0.5l0.2,0.5l0.2,0.5l0.2,0.5l0.6,0.8l0.3,0.4l0.3,0.3
		c0.2,0.1,0.5,0.3,0.7,0.5l0.4,0.2l0.4,0.1h0.3l0.2,0.1h0.4c1.1,0,2.2-0.6,3.2-1.8c0.3-0.4,0.8-1,1.3-1.7l0.2-0.3l0.2-0.3l0.3-0.5
		c0.4-0.7,0.7-1.4,1-2.1l0.1-0.1c0.7-0.9,1.4-2.1,2.1-3.7l1-2c0.1-0.1,0.1-0.2,0.2-0.3l0,0l0.1,0.3l0.2,0.4l0.1,0.1
		c0.6,0.7,1.1,1.2,1.6,1.6l0.4,0.3l0.2,0.1l0.2,0.1c0.3,0.1,0.6,0.3,1,0.4c0.4,0,0.7,0.1,1.1,0.1h0.8L116,94
		c0.4-0.1,0.9-0.2,1.3-0.4l0.4-0.1c0.1,0,0.2,0,0.4-0.1h0.2l0.2-0.1l0.1-0.1l0.1-0.1l0.5-0.4c0.2-0.2,0.4-0.3,0.6-0.4
		c0.1-0.1,0.1-0.2,0.1-0.4l0.7-0.6l0.6-0.6l1.2-1.3c0.5-0.5,0.9-0.8,1.1-1.1c0.1-0.1,0.1-0.3,0.2-0.5c0-0.1,0.1-0.3,0.2-0.5
		c2.5-3.2,4.8-7.2,6.9-11.9c-0.9,5.7-1.4,11.3-1.6,16.8l0.1,0.8v0.8c0,3,0.2,5.5,0.6,7.5c0.5,2.8,1.5,4.9,2.9,6.4v0.2
		c0,0.3,0.2,0.6,0.5,0.9l0.3,0.3l0.2,0.2c0.2,0.2,0.3,0.4,0.3,0.6h0.5l0.5,0.1c0.2,0,0.4,0.1,0.5,0.1c0.1,0,0.3,0,0.3-0.1l0.1-0.9
		c-1.2-1.9-1.8-4.8-2-8.7c0-0.9-0.1-1.9-0.1-3.1v-7c0.4-3.8,1-8.1,1.8-12.9c0.3-1.6,0.6-3.6,1.1-6.1l0.6-3.1l0.6-3.1
		c0.5-1.2,0.9-2.7,1.3-4.6l0.3-1.1l0.2-1.1c0.2-0.7,0.4-1.4,0.6-1.9c-0.1,0-0.2-0.1-0.3-0.2c-0.1-0.1-0.1-0.2-0.2-0.4
		c0.8-0.2,1.2-0.6,1.2-1.3c0-0.3-0.1-0.5-0.2-0.8c0.4-0.1,0.7-0.7,0.8-1.5l0.1-0.4l0.1-0.4c0.1-0.3,0.3-0.6,0.4-0.7
		c0,0,0.1-0.1,0.1-0.1c0,0-0.1-0.1-0.2-0.1c-0.1,0-0.1,0-0.2-0.1v-0.3c0.4-0.1,0.7-0.5,0.9-1.1c0-0.2,0.1-0.5,0.2-0.8l0.2-0.8h0.1
		c0.1-0.6,0.2-1.1,0.3-1.5v-0.2l0.1-0.2l0.1-0.3c0-0.1,0-0.2-0.1-0.4h0.2c0-0.1,0-0.1,0.1-0.2c0.3-0.1,0.7-0.2,1.1-0.2l1.8-0.3
		c1.6-0.2,2.7-0.5,3.5-0.8h0.6c-0.3,0.5-0.5,1.1-0.6,1.7h-0.1c0,0.3-0.1,0.7-0.2,1.1h0.1c-0.1,0.3-0.2,0.5-0.3,0.7l-0.3,0.7v0.1
		l-0.1,0.1v0.2c-0.1,0.3-0.2,0.5-0.3,0.7v0.1c-5.8,16.5-8.9,30.6-9.5,42.5v0.7v1.6c0,2.5,0.1,4.5,0.4,6.3c0.5,2.6,1.4,4.7,2.7,6.1
		v0.2c0,0.3,0.2,0.5,0.5,0.8l0.2,0.2l0.2,0.2c0.2,0.2,0.3,0.4,0.3,0.6h0.5l0.5,0.1c0.2,0,0.4,0.1,0.5,0.1c0.1,0,0.3,0,0.3-0.1v-0.3
		c0.7-0.1,1.5-0.3,2.2-0.7l0.1-0.1v-0.1c0,0,0.1-0.1,0.1-0.1c0-0.1,0-0.1-0.1-0.2c0.2,0,0.4-0.1,0.7-0.3l0.2-0.2l0.2-0.2
		c0.4-0.4,0.7-0.6,1-0.6c0-0.2-0.1-0.4-0.2-0.4c0.1,0,0.2,0,0.3-0.1l0.1-0.1h0.2c0.1-0.2,0.3-0.4,0.4-0.7l0.5-0.6l0.5-0.7
		c0.2-0.2,0.3-0.4,0.4-0.7l0.4-0.4l0.4-0.4c0.3-0.4,0.5-0.7,0.5-1.1c0.3-0.2,0.6-0.6,0.9-1.2l0.4-0.6c0.2-0.3,0.4-0.5,0.6-0.6v-0.2
		l0.1-0.2c0-0.1,0.1-0.2,0.1-0.3v-0.1c0.3-0.2,0.5-0.5,0.7-0.9l0.4-1c0.4-0.9,0.8-1.5,1.2-1.8c0-0.1,0.1-0.3,0.2-0.6
		c0-0.2,0.1-0.5,0.2-0.7c0.1-0.3,0.2-0.5,0.3-0.6c0-0.1,0.1-0.1,0.1-0.2v0.2c0,0.1-0.1,0.2-0.2,0.3c0,0.3,0.3,0.6,0.9,0.9
		c0,0.1,0.1,0.3,0.3,0.4c0.2,0.2,0.5,0.3,1,0.4c0.3,0.1,0.6,0.2,1,0.3l0.1,0.1c0.3,0.2,0.6,0.3,0.8,0.3h0.1c0.1,0,0.2-0.1,0.2-0.2
		v-0.1c0.4,0.1,0.7,0.1,1,0.1c0.7-0.7,1.3-1.6,1.7-2.7l0.4-1.4c0.1-0.6,0.3-1,0.4-1.4c-0.1,0-0.2-0.1-0.2-0.2v-0.2
		c0-0.1-0.1-0.3-0.2-0.3h0.1l0.1,0.1c0.1,0,0.2,0,0.2-0.1c0.1-0.4,0.3-0.8,0.4-1.3l0.2-1.2c0.2-0.9,0.5-1.7,0.8-2.2
		c-0.1-0.1-0.2-0.1-0.2-0.2V83c0,0-0.1-0.1-0.3-0.2c0.3,0,0.5-0.1,0.5-0.2v-0.1c0-0.1-0.1-0.2-0.4-0.4c0,0,0.1-0.1,0.1-0.1
		c0.1,0,0.1,0,0.2,0.1h0.2c0.1,0,0.1,0,0.1-0.1c0.2-1.2,0.5-1.9,0.7-2.1v-0.6l-0.1-0.1c0.1,0,0.1,0,0.2-0.1l0.1-0.1V79l0.1-0.1
		l0.3-0.4v-0.1l0.2-0.2l0.2-0.2c0-0.1,0.1-0.1,0.1-0.2c0-0.1-0.1-0.3-0.3-0.4v-0.1h0.2c0.1,0,0.2,0.1,0.2,0.1
		c-0.1-0.1-0.2-0.1-0.2-0.2c0,0,0-0.1,0.1-0.1l0.1-0.2l0.2-0.1c0.1-0.1,0.2-0.2,0.2-0.3c0-0.1-0.1-0.3-0.2-0.4
		c0.4,0,0.6-0.1,0.6-0.3c0-0.1-0.2-0.4-0.6-0.6h0.2c0.1,0,0.3,0,0.4,0.1c0.1-0.2,0.2-0.4,0.3-0.7l0.4-0.6c0.4-0.6,0.7-1.1,0.7-1.6
		l1.5-1.8l1.5-1.8c1.2-1.4,2.3-2.5,3.4-3.4l1-0.4l1-0.4c0.7-0.3,1.4-0.4,2-0.4h0.2c0,0,0.1,0,0.1,0l0,0.4c-0.1,0.6-0.2,1.1-0.5,1.5
		c0,0.1-0.1,0.2-0.1,0.3l0.1,0.3v0.2c-0.6,1.8-1.1,3.4-1.4,4.7c-0.5,1.8-0.8,3.4-1,4.9l-0.1,0.1c-0.3,0.4-0.5,1-0.6,1.8l-0.1,1
		c-0.1,0.4-0.2,0.7-0.3,1l-0.1,0.1c0,0.7-0.1,1.4-0.2,2.1l-0.2,1.2l-0.1,0.6l-0.1,0.6c0,0.3,0,0.5,0.1,0.8c0,0.4,0.1,0.7,0.1,0.8
		l0.1,0.2L179,87l0.2,0.5l0.4,0.8c0.6,1.2,1.5,2,2.5,2.5l0.2,0.1c0.5,0.3,1.1,0.5,1.7,0.6c0.6,0,1.2-0.1,1.7-0.3L186,91l0.4-0.2
		l0.8-0.6l0.4-0.3l0.4-0.3l0.2-0.2l0.1-0.1l0.2-0.2c0.9-0.8,1.9-2,3.1-3.5l1.3-1.8l1.3-1.8c0.3-0.4,0.5-0.7,0.8-1l0,0l-0.6,3.7
		c-0.5,2.8-0.8,5.4-1,7.6c-0.2,0-0.3,0.2-0.3,0.4v0.3c0,0.1-0.1,0.2-0.2,0.2v0.2l0.1,0.1h0.1c0.1,0,0.2,0.1,0.2,0.2l-0.4,0.1
		l-0.2,1.3v0.2h0.1l-0.1,0.1V96c0,0.2-0.1,0.4-0.2,0.6v0.4l0.1-0.1c-0.2,0.7-0.4,1.7-0.7,3l-0.3,1.6l-0.3,1.6L191.4,103.6z
		 M75.2,72.2c0.4-0.4,0.8-0.8,1-1.1c0.1-0.2,0.3-0.3,0.6-0.3H77l0.2-0.1C77,70.6,77,70.5,77,70.4c0,0,0-0.1,0.1-0.2l0.6-0.4l0.3-0.2
		l0.2-0.1l0.1-0.1c0.1-0.1,0.2-0.1,0.3-0.2c0.1,0,0.2,0,0.3,0.1h0.1l0.1-0.1c0.1-0.2,0.3-0.3,0.4-0.3h0.1c0.2,0,0.3,0.1,0.3,0.3v0.4
		c0,0.1,0.1,0.2,0.2,0.3l0.1,0.1c0,0.1-0.1,0.1-0.2,0.2c-0.2,0.1-0.3,0.1-0.3,0.1l-0.1,0.1l-0.1,0.2l-0.1,0.1
		c-0.2,0.4-0.4,0.9-0.4,1.3c0,0.1-0.1,0.1-0.2,0.2c-0.3,0.3-0.7,0.8-1.2,1.3l-1.1,1.2c-0.9,0.9-1.8,1.6-2.8,2.1c0,0,0.1,0.1,0.1,0.1
		c0,0.1,0,0.1-0.1,0.2l-0.2,0.1l-0.1,0.2c-0.1,0.1-0.2,0.2-0.3,0.3c-0.4,0.1-0.8,0.3-1,0.4c0.1-0.4,0.4-0.9,0.6-1.5l0.9-1.7
		c0.1-0.3,0.3-0.5,0.4-0.8c0.3-0.5,0.5-0.8,0.7-0.8c0,0,0.1-0.1,0.1-0.2c0-0.1,0-0.2-0.1-0.3c0,0,0,0,0,0l0.2-0.2L75.2,72.2z
		 M126.3,74.7c-0.5,0.3-0.9,0.8-1.3,1.5c-0.3,0.5-0.5,1.1-0.7,1.8c-0.4,0.6-0.9,1.2-1.3,1.8l-1.1,1.8c-1,1.5-1.8,2.7-2.6,3.4
		c0,0,0.1,0.1,0.1,0.1c0,0.1,0,0.1-0.1,0.2l-0.2,0.2c0,0.1-0.1,0.2-0.1,0.3c-0.9,0.6-1.7,1.5-2.6,2.6l-0.2-0.1l-0.1,0.1
		c-0.1,0.1-0.3,0.3-0.6,0.4h-0.1V89h0.1c0,0.2,0,0.3-0.1,0.3l-0.1-0.1l0.1-0.2l-0.1,0.1l-0.1,0.1v0.1c-0.1,0.1-0.2,0.2-0.4,0.2
		l-0.2-0.1l-0.2-0.1l-0.1,0.1l-0.1,0.1v-0.2c0-0.1,0-0.2-0.1-0.4l-0.1-0.2l-0.1-0.2V88c-0.2-0.3-0.4-0.7-0.4-1.2v-0.6
		c0-0.2-0.1-0.4-0.2-0.6c0.1,0,0.1,0,0.2-0.1l0.1-0.1l0.2-0.1c-0.1-0.1-0.1-0.3-0.1-0.4c0-0.1,0-0.3,0.1-0.4l0.1-0.4
		c0-0.2,0-0.4-0.1-0.5v-0.2c0.1-0.2,0.3-0.5,0.4-0.8l0.2-0.8c0.2-0.6,0.4-1.1,0.8-1.4v-0.2l-0.1-0.1c-0.1-0.1-0.1-0.1-0.1-0.2
		c0.3-0.2,0.5-0.6,0.7-1.1l0.1-0.3l0.2-0.3c0.1-0.2,0.3-0.4,0.4-0.5c0.1,0,0.1-0.1,0.1-0.1c0,0,0-0.1-0.1-0.2c0-0.1-0.1-0.1-0.1-0.2
		c0-0.2,0.1-0.4,0.2-0.5c0.1-0.1,0.3-0.3,0.5-0.4c0.1,0,0.1-0.1,0.1-0.1c0.1-0.4,0.4-0.9,0.9-1.5l0.3-0.4l0.3-0.3
		c0.2-0.3,0.3-0.6,0.4-0.9l0.1-0.1l0.3-0.2l0.3-0.2c0.2-0.2,0.4-0.4,0.4-0.6c0-0.1,0.1-0.2,0.2-0.2c0,0,0.1,0,0.2,0.1h0.3
		c-0.2-0.1-0.3-0.2-0.3-0.3c0.1-0.1,0.2-0.2,0.3-0.3l0.3-0.3c0.3-0.3,0.5-0.4,0.7-0.4c0.1,0,0.1,0,0.2-0.1c0.1-0.3,0.2-0.5,0.4-0.6
		l0.3-0.2l0.3-0.2c0.6-0.2,0.9-0.5,1-1v-0.1l0.1,0.1c0.1,0.1,0.2,0.1,0.3,0.1c0.1,0,0.1-0.1,0.2-0.2v-0.1c0,0,0.1,0,0.1,0.1
		c0.1,0.3,0.2,0.4,0.3,0.4l0.1,0.1v0.1c0,0,0,0.1-0.1,0.2h0.3v0.1c0,0.1-0.1,0.1-0.1,0.2c0,0.3,0.2,0.6,0.6,1
		c0.1,0.1,0.2,0.1,0.4,0.2l0.6,0.1l0.6,0.1C126.8,72.5,126.4,73.7,126.3,74.7z M211.8,87.3c-0.1,0.3-0.2,0.5-0.4,0.6l-0.3,0.2
		l-0.3,0.1c-0.6,0.3-1,0.6-1.1,0.9c0,0.1-0.1,0.1-0.1,0.1l-0.1-0.1c-0.1-0.1-0.2-0.2-0.3-0.2c-0.1,0-0.1,0.1-0.2,0.2
		c-0.1-0.3-0.2-0.4-0.3-0.4l-0.1-0.1v-0.1c0-0.1,0.1-0.1,0.2-0.2h-0.2c-0.1,0-0.1,0-0.1-0.1c0-0.1,0.1-0.2,0.1-0.3
		c0-0.3-0.1-0.6-0.4-1c-0.1-0.1-0.2-0.2-0.4-0.3l-0.7-0.2l-0.7-0.2c-0.5-0.1-0.9-0.3-1.2-0.4L205,86c0.1-0.1,0.2-0.2,0.4-0.3
		l0.2-0.1l0.2-0.1c-0.2,0-0.3-0.1-0.3-0.3c0.1-0.2,0.3-0.4,0.4-0.7l0.4-0.7c0.3-0.6,0.6-1,0.8-1.2c0.1-0.1,0.2-0.2,0.2-0.4
		c0.1-0.6,0.5-1.3,1.2-2.2c0.3-0.5,0.6-0.9,0.7-1.1c0.3-0.4,0.4-0.9,0.5-1.3c0-0.2,0.1-0.3,0.3-0.4c0.4-0.2,0.7-0.5,1-0.9
		c0.3-0.3,0.5-0.7,0.6-1.1c0-0.1,0.1-0.1,0.2-0.2c0.4-0.3,0.8-0.7,1.2-1.1l1.1-1.1c0.9-0.9,1.6-1.5,2.3-1.8c0-0.1-0.1-0.1-0.1-0.2
		s0-0.1,0.1-0.1l0.2-0.1l0.1-0.1c0-0.1,0.1-0.2,0.2-0.2c0.6-0.2,1.2-0.5,1.7-0.9l0.1,0.1c0,0,0.1,0,0.1-0.1l0.1,0.1
		c0-0.2,0.1-0.3,0.3-0.3c0.1,0,0.2,0,0.3,0.1l0.1-0.1c0.1-0.1,0.2-0.1,0.3-0.2l0.2-0.1l0.1-0.1v-0.1c0-0.2,0-0.3,0.1-0.3v0.2
		c0,0,0.1-0.1,0.1-0.1v-0.2c0.1-0.1,0.2-0.2,0.3-0.2h0.1l0.2,0.1l0.2,0.1l0.1-0.1l0.1-0.1c0,0.1-0.1,0.1-0.1,0.2
		c0,0.1,0,0.2,0.1,0.3c0.1,0.1,0.1,0.3,0.2,0.4v0.2c0,0.1,0,0.2-0.1,0.3v0.1c0.1,0.2,0.2,0.4,0.2,0.6c0,0.1,0.1,0.2,0.1,0.3
		c0,0.1,0,0.2-0.1,0.3v0.8l0.1,0.2v0.2h-0.1c0,0-0.1,0-0.1,0.1l-0.1,0.1h-0.2c0.1,0.1,0.1,0.3,0.1,0.4c0,0.1,0,0.3-0.1,0.5l-0.2,0.4
		V74c0,0.1,0,0.2,0.1,0.3c0,0,0.1,0.1,0.1,0.1c0,0,0,0.1-0.1,0.1c-0.1,0.2-0.3,0.4-0.4,0.7l-0.3,0.8c-0.3,0.7-0.6,1.2-0.8,1.5v0.1
		l0.1,0.1c0,0,0.1,0.1,0.1,0.1v0.1c-0.1,0.1-0.3,0.3-0.4,0.5l-0.2,0.3l-0.1,0.3c-0.3,0.6-0.5,1-0.8,1.2c0,0-0.1,0.1-0.1,0.2v0.2
		c0,0.2-0.1,0.4-0.2,0.6l-0.3,0.2l-0.3,0.2c0,0-0.1,0.1-0.1,0.1c-0.1,0.3-0.2,0.5-0.4,0.8l-0.6,0.7l-0.3,0.3l-0.3,0.4
		c-0.2,0.3-0.4,0.6-0.4,0.9l-0.1,0.1l-0.3,0.2l-0.3,0.2c-0.3,0.2-0.4,0.4-0.5,0.6c0,0.1-0.1,0.2-0.2,0.2c0,0-0.1,0-0.2-0.1h-0.3
		c0.1,0.1,0.2,0.2,0.2,0.3c-0.1,0.1-0.2,0.2-0.3,0.3l-0.3,0.3c-0.3,0.3-0.5,0.4-0.7,0.4C211.9,87.2,211.8,87.3,211.8,87.3z"/>
	<path class="st0" d="M123.2,117.9c-6.3-1.8-13-2.8-20.2-3.1l-4.9-0.1h-0.6l-0.6,0.1h-1.2l-2.5,0.1l-1.2,0.1l-1.2,0.1l-2.4,0.2
		l-1.2,0.1l-0.6,0.1h-0.3l-0.3,0.1l-2.4,0.3v-0.1h-0.1c-0.2,0.1-0.4,0.1-0.7,0.1h-0.2h-0.1h-0.1l-0.7,0.2c-0.2,0.1-0.5,0.1-0.7,0.1
		V116h-0.5H80v0.1c-0.5,0-1,0.1-1.4,0.2c-0.6,0.1-1,0.3-1.3,0.6H77l-0.2-0.1c-0.2,0-0.3-0.1-0.5-0.1l-1,0.2l-0.4,0.1l-0.5,0.1
		l-2,0.4l-2,0.4l-2,0.4l-4,0.9l-3.9,0.9c0,0.1-0.8,0.4-0.8,0.4c-0.7,0.1-3.2,0.9-3.2,0.9l-1.7,0.5l-1.6,0.6l-0.4,0.1l-0.4,0.2
		l-0.8,0.3l-1.5,0.5l-1.6,0.5l-0.8,0.2l-0.4,0.1l-1.2,0.4l-0.4,0.2l-0.4,0.2l-0.2,0.1l-0.2,0.1l-0.4,0.2l-0.4,0.3l-0.2,0.1l-0.1,0.1
		l-0.1,0.1l-0.5,0.3l-0.6,0.3l-0.3,0.2l-0.3,0.2l-0.3,0.2c0,0-1.1,0.8-1.1,0.8c0.2-0.1,0.3-0.2,0.3-0.3l-0.5,0.4l-0.3,0.2l-0.2,0.2
		l-0.5,0.4l-0.4,0.4c-0.2,0.3-0.3,0.4-0.4,0.4l-0.1,0.1l-0.1,0.1l-0.2,0.2l-0.1,0.2l-0.3,0.4l-0.1,0.2l-0.1,0.2
		c-0.1,0.3-0.1,0.6,0.1,0.8c0.2,0.2,0.5,0.3,1,0.2l1.6-0.6l1-0.2l0.7-0.2l0.7-0.3l0.4-0.2l0.2-0.1l0.2-0.1l0.4-0.2l0.4-0.2
		c0.6-0.3,1.3-0.6,2.1-0.9c0.5-0.2,1.1-0.4,1.9-0.6l0.4-0.1l0.2-0.1l0.2-0.1l0.8-0.2l3.2-1l1.6-0.5c1.2-0.4,4.7-1.5,4.8-1.5
		c1-0.2,2-0.5,3.1-0.8l1.4-0.4l0.7-0.2l0.7-0.2c1.1-0.3,1.9-0.5,2.6-0.7l1.4-0.3l5.7-1.3l0.7-0.2l0.7-0.2c1-0.2,1.8-0.3,2.4-0.3
		c0.4-0.1,0.8-0.3,1.3-0.3l0.1-0.2c0.1,0.1,0.2,0.1,0.3,0.1l0.2-0.1l0.2-0.1h0.2h1.4v-0.1h0.7h0.7c0.5-0.1,0.9-0.3,1.1-0.6
		c0.1,0,0.2,0,0.2,0l0.1,0.2c0,0.1,0.1,0.1,0.2,0.1c0.1-0.1,0.4-0.2,0.7-0.3c0.2,0,0.5,0,0.8,0c0.7,0,1.2-0.1,1.4-0.4
		c0.9,0.5,1.6,0.3,2-0.5c0.3,0.1,0.4,0.3,0.4,0.5l0.8-0.1l0.9-0.1h1.9c0.8,0,1.5,0,2-0.1c0.6,0,1.2-0.1,2.1-0.2l2.8,0.1l1.3,0.1
		l0.7,0.1l0.7,0.1l2.6,0.2l1.3,0.1l0.7,0.1h0.3l0.4,0.1l2.6,0.3l1.4,0.2l0.7,0.1l0.7,0.1l2.8,0.4l1.4,0.2l0.7,0.1l0.7,0.2l2,0.6
		l2,0.7l1,0.3l1,0.3l2,0.8c0.7,0.3,1.3,0.5,1.9,0.8l0.5,0.2l0.4,0.3l0.8,0.4c1.1,0.7,2,1.5,2.7,2.3l0.7,0.2c0.1-0.1,0.2-0.3,0.3-0.7
		l0.1-0.4l0.1-0.4c-0.1-0.1-0.3-0.3-0.4-0.4l-0.2-0.5c-0.2-0.4-0.4-0.7-0.7-0.7c-0.4-0.8-1-1.5-1.8-2.2c-0.4-0.3-0.8-0.6-1.2-0.9
		l-0.6-0.5l-0.7-0.4c-0.9-0.5-1.9-1-3.1-1.5l-1.7-0.6l-1.8-0.6L123.2,117.9z"/>
</g>
</svg>
