<?xml version="1.0" encoding="utf-8"?>
<!-- Generator: Adobe Illustrator 21.0.0, SVG Export Plug-In . SVG Version: 6.00 Build 0)  -->
<svg version="1.1"
	 id="svg2" inkscape:version="0.91 r13725" sodipodi:docname="hjhj.svg" xmlns:cc="http://creativecommons.org/ns#" xmlns:dc="http://purl.org/dc/elements/1.1/" xmlns:inkscape="http://www.inkscape.org/namespaces/inkscape" xmlns:rdf="http://www.w3.org/1999/02/22-rdf-syntax-ns#" xmlns:sodipodi="http://sodipodi.sourceforge.net/DTD/sodipodi-0.dtd" xmlns:svg="http://www.w3.org/2000/svg"
	 xmlns="http://www.w3.org/2000/svg" xmlns:xlink="http://www.w3.org/1999/xlink" x="0px" y="0px" viewBox="0 0 800 267"
	 style="enable-background:new 0 0 800 267;" xml:space="preserve">
<style type="text/css">
	.st0{fill:none;stroke:#FFFFFF;stroke-width:19;}
	.st1{fill:#FFFFFF;stroke:#FFFFFF;}
	.st2{fill:#FFFFFF;stroke:#FFFFFF;stroke-width:15;}
	.st3{fill:none;stroke:#FFFFFF;stroke-width:31.4;}
	.st4{fill:#FFFFFF;}
</style>
<sodipodi:namedview  bordercolor="#666666" borderopacity="1.0" fit-margin-bottom="0" fit-margin-left="0" fit-margin-right="0" fit-margin-top="0" id="base" inkscape:current-layer="layer1" inkscape:cx="796.96067" inkscape:cy="205.95272" inkscape:document-units="px" inkscape:pageopacity="0.0" inkscape:pageshadow="2" inkscape:window-height="1084" inkscape:window-maximized="0" inkscape:window-width="1008" inkscape:window-x="1024" inkscape:window-y="0" inkscape:zoom="0.48" pagecolor="#ffffff" showgrid="false">
	</sodipodi:namedview>
<g id="layer1" transform="translate(54.285713,328.79852)" inkscape:groupmode="layer" inkscape:label="Layer 1">
	<ellipse id="path4147" class="st0" cx="69.6" cy="-196" rx="115.8" ry="115.5"/>
	<ellipse id="ellipse4149" class="st0" cx="345.2" cy="-196" rx="115.8" ry="115.5"/>
	<ellipse id="ellipse4151" class="st0" cx="622.4" cy="-196" rx="115.8" ry="115.5"/>
	<path id="path4153" inkscape:connector-curvature="0" sodipodi:nodetypes="ccccccccccc" class="st1" d="M324.9-110l0.3-64.2
		l-14.7-0.2V-231c0.1-3.2,1.7-6.2,6.2-5.9l58.4-0.4c3.9,0.7,7.4,2,7.1,8.1l-0.3,55.8l-15.4,0.2v63.8L324.9-110z"/>
	<ellipse id="path4155" class="st2" cx="345.3" cy="-264.5" rx="16.8" ry="16.3"/>
	
		<path id="path4157" sodipodi:cx="782.987" sodipodi:cy="-160.20003" sodipodi:end="2.9057875" sodipodi:open="true" sodipodi:rx="63.797535" sodipodi:ry="72.888451" sodipodi:start="3.451922" sodipodi:type="arc" class="st3" d="
		M576.9-211.7c7.8-27.7,32.3-44.7,57.4-39.6c25.1,5,43.1,30.5,42.2,59.6c-1,29.1-20.6,53-45.9,55.9c-25.4,2.9-48.7-16.1-54.7-44.4"
		/>
	<path id="path5247" inkscape:connector-curvature="0" sodipodi:nodetypes="cccc" class="st1" d="M569.8-198.2l-14.2-28l46.2,15.6
		L569.8-198.2z"/>
</g>
<path class="st4" d="M163,153.9c-5.6,0-10-2-12.9-6s-4.4-9.6-4.4-16.5c0-15.3,5.6-22.9,17.3-22.9c2.4,0,4.8,0.8,7.6,2.4s4.8,4,6.8,8
	l16.9-8.8c-6.8-12.4-18.1-18.5-34.1-18.5c-10.8,0-19.7,3.6-26.9,10.8c-7.2,7.2-10.8,16.9-10.8,29.3s3.6,22.5,10.4,29.3
	c6.8,7.2,16.1,10.4,27.7,10.4c7.2,0,13.7-1.6,19.7-5.2s10.8-8.4,14.1-14.9l-16.1-8C175.9,149.8,170.2,153.9,163,153.9z"/>
<path class="st4" d="M88.7,153.9c-5.6,0-10-2-12.9-6c-2.8-4-4.4-9.6-4.4-16.5c0-15.3,5.6-22.9,17.3-22.9c2.4,0,4.8,0.8,7.6,2.4
	c2.8,1.6,4.8,4,6.8,8l17.3-8.8c-6.8-12.4-18.5-18.5-34.1-18.5c-10.8,0-19.7,3.6-26.9,10.8c-7.2,7.2-10.8,16.9-10.8,29.3
	S52.2,154.2,59,161c7.2,7.2,16.5,10.4,27.7,10.4c7.2,0,13.7-1.6,19.7-5.2s10.4-8.4,14.1-14.9l-15.7-8
	C101.6,149.8,96.3,153.9,88.7,153.9z"/>
</svg>
