<?xml version="1.0" encoding="utf-8"?>
<!-- Generator: Adobe Illustrator 21.1.0, SVG Export Plug-In . SVG Version: 6.00 Build 0)  -->
<!DOCTYPE svg PUBLIC "-//W3C//DTD SVG 1.1//EN" "http://www.w3.org/Graphics/SVG/1.1/DTD/svg11.dtd">
<svg xmlns="http://www.w3.org/2000/svg" viewBox="0 0 238 124">
  
  
  
  <path fill="none" stroke="#6D6E71" stroke-width="7.5" stroke-linecap="round" stroke-linejoin="round" stroke-miterlimit="10" d="M33.9,17.2c0.9,11.3-2.4,22.9-10.3,50.9S13,115,15,118.5c2,3.6,1.5,2.6,2,3.6"/>
  <path fill="none" stroke="#6D6E71" stroke-width="7.5" stroke-linecap="round" stroke-linejoin="round" stroke-miterlimit="10" d="M2.5,36.1c9.8-5.8,22.6-22.9,70.4-17.7"/>
  <path fill="none" stroke="#6D6E71" stroke-width="7.5" stroke-linecap="round" stroke-linejoin="round" stroke-miterlimit="10" d="M10.4,79.6c6.6-4.8,14.2-12.9,39.2-10"/>
  <path fill="none" stroke="#6D6E71" stroke-width="7.5" stroke-linecap="round" stroke-linejoin="round" stroke-miterlimit="10" d="M59.3,65.5c-3.2,10.9-5.4,23.3-1.9,23.4C61,89,73.9,81.5,78.7,77.3c4.8-4.2,5.4-9.2,3.3-10.8
  	c-2.6-1.9-9.5,1.7-11.8,7.8s-1,15.6,4.2,15.7c7.5,0.1,21.5-11.2,23-14.7c0,0,10.6-35.9,12.2-39.6c1.6-3.7,14.2-32.2,14.2-32.6
  	s-13.2,30.2-15.1,35S96.6,76.9,96.6,80.6c0,3.7-1.3,22,4.9,21.1s10.8-20.8,10.8-20.8"/>
  <path fill="none" stroke="#6D6E71" stroke-width="7.5" stroke-linecap="round" stroke-linejoin="round" stroke-miterlimit="10" d="M129.2,69.8c-2.3-3.6-4.8-3.8-8.6-1.2s-6.7,8.2-8.2,11.7s-2.5,11.7,2.1,12.2c4.6,0.6,12.9-12.4,20.3-30.4
  	c7.4-18,22.6-54.8,23.5-58.6c0.9-3.8-2.4,4.8-2.4,4.8S141.9,40.8,137.4,57c-4.6,16.6-7.5,37.4-2.8,50.4"/>
  <path fill="none" stroke="#6D6E71" stroke-width="7.5" stroke-linecap="round" stroke-linejoin="round" stroke-miterlimit="10" d="M170.8,7c-4.9,8.3-24.9,49.8-27.8,76.3c-2.9,26.8,5.1,22.6,7.2,19.9c2.2-2.7,13.9-22.2,15.4-28.4"/>
  <path fill="none" stroke="#6D6E71" stroke-width="7.5" stroke-linecap="round" stroke-linejoin="round" stroke-miterlimit="10" d="M130.1,47c11.3-5.2,13-5.7,24.7-6c12.5-0.4,9.2-0.1,17.8-1.6"/>
  <path fill="none" stroke="#6D6E71" stroke-width="7.5" stroke-linecap="round" stroke-linejoin="round" stroke-miterlimit="10" d="M167.5,61.6c-0.2,4.5-7,37.8-5.5,31.5s2.7-16.4,9-23.1c5.4-5.8,7.1-6.3,9.8-7.2"/>
  <path fill="none" stroke="#6D6E71" stroke-width="7.5" stroke-linecap="round" stroke-linejoin="round" stroke-miterlimit="10" d="M185.7,65.6c-0.7,2.5-6,20.5-2.8,22.8c3.2,2.3,14.3-9.8,15.3-14.6S199,63,199,63s-1.8,30.2-3.5,37.7
  	s-7.3,30.5-7.3,30.5s6.3-27.3,10.5-37.2c4.2-9.8,10.8-24.5,17.9-27c7.2-2.5,8.6,1.5,7.8,5c-0.8,3.5-4.9,19-15.8,19.7
  	c-10.8,0.7-5.9-6.3-5.9-6.3"/>
  <path fill="none" stroke="#6D6E71" stroke-width="7.5" stroke-linecap="round" stroke-linejoin="round" stroke-miterlimit="10" d="M39,131c11.8-5.5,66.7-26.2,96.8-4"/>
  <line fill="none" stroke="#6D6E71" stroke-width="7.5" stroke-linecap="round" stroke-linejoin="round" stroke-miterlimit="10" x1="187.7" y1="57.3" x2="187.7" y2="57.4"/>
  <line fill="none" stroke="#6D6E71" stroke-width="7.5" stroke-linecap="round" stroke-linejoin="round" stroke-miterlimit="10" x1="61.8" y1="57" x2="61.8" y2="57"/>
  
</svg>

